<svg xmlns="http://www.w3.org/2000/svg" xmlns:xlink="http://www.w3.org/1999/xlink" viewBox="0 0 3710 3710"><defs><style>.cls-1,.cls-14,.cls-4,.cls-5{fill:#fff;}.cls-2{fill:url(#linear-gradient);}.cls-3{fill:#91b3fa;}.cls-4,.cls-8{opacity:0.6;}.cls-5{opacity:0.78;}.cls-6{fill:url(#linear-gradient-2);}.cls-7{fill:url(#linear-gradient-3);}.cls-9{fill:url(#linear-gradient-4);}.cls-10{fill:url(#linear-gradient-5);}.cls-11{fill:url(#linear-gradient-6);}.cls-12{fill:url(#linear-gradient-7);}.cls-13{fill:url(#linear-gradient-8);}.cls-14{opacity:0.5;}.cls-15{fill:url(#linear-gradient-9);}.cls-16{fill:url(#linear-gradient-10);}.cls-17{fill:url(#linear-gradient-11);}.cls-18{fill:url(#linear-gradient-12);}.cls-19{fill:url(#linear-gradient-13);}.cls-20{fill:url(#linear-gradient-14);}.cls-21{fill:url(#linear-gradient-15);}.cls-22{fill:url(#linear-gradient-16);}.cls-23{fill:url(#linear-gradient-17);}.cls-24{fill:url(#linear-gradient-18);}.cls-25{fill:url(#linear-gradient-19);}.cls-26{fill:url(#linear-gradient-20);}.cls-27{fill:url(#linear-gradient-21);}.cls-28{fill:url(#linear-gradient-22);}.cls-29{fill:url(#linear-gradient-23);}.cls-30{fill:url(#linear-gradient-24);}.cls-31{fill:url(#linear-gradient-25);}.cls-32{fill:url(#linear-gradient-26);}.cls-33{fill:url(#linear-gradient-27);}.cls-34{fill:url(#linear-gradient-28);}.cls-35{fill:url(#linear-gradient-29);}.cls-36{fill:url(#linear-gradient-30);}.cls-37{fill:url(#linear-gradient-31);}.cls-38{fill:url(#linear-gradient-32);}.cls-39{fill:url(#linear-gradient-33);}.cls-40{fill:url(#linear-gradient-34);}.cls-41{fill:url(#linear-gradient-35);}.cls-42{fill:url(#linear-gradient-36);}.cls-43{fill:url(#linear-gradient-37);}.cls-44{fill:url(#linear-gradient-38);}.cls-45{fill:url(#linear-gradient-39);}</style><linearGradient id="linear-gradient" x1="3253.52" y1="3457.78" x2="752.39" y2="608.39" gradientUnits="userSpaceOnUse"><stop offset="0" stop-color="#dae3fe"/><stop offset="1" stop-color="#e9effd"/></linearGradient><linearGradient id="linear-gradient-2" x1="2736.28" y1="363.31" x2="2069.26" y2="1356.35" gradientTransform="translate(2275.79 -1652.39) rotate(80.72)" gradientUnits="userSpaceOnUse"><stop offset="0" stop-color="#fdf53f"/><stop offset="1" stop-color="#d93c65"/></linearGradient><linearGradient id="linear-gradient-3" x1="2850.18" y1="439.83" x2="2183.17" y2="1432.85" gradientTransform="matrix(0.98, 0.21, -0.21, 0.98, -280.71, -24.59)" xlink:href="#linear-gradient-2"/><linearGradient id="linear-gradient-4" x1="2718.93" y1="1000.03" x2="2220.53" y2="1850.68" gradientTransform="matrix(0.98, 0.21, -0.21, 0.98, -280.71, -24.59)" gradientUnits="userSpaceOnUse"><stop offset="0" stop-color="#a737d5"/><stop offset="1" stop-color="#ef497a"/></linearGradient><linearGradient id="linear-gradient-5" x1="2810.17" y1="1053.49" x2="2311.77" y2="1904.14" xlink:href="#linear-gradient-4"/><linearGradient id="linear-gradient-6" x1="2886.88" y1="1263.18" x2="2231.1" y2="2177.53" xlink:href="#linear-gradient-4"/><linearGradient id="linear-gradient-7" x1="2992.64" y1="1160.41" x2="2494.24" y2="2011.05" xlink:href="#linear-gradient-4"/><linearGradient id="linear-gradient-8" x1="843.95" y1="1957.53" x2="345.56" y2="2808.15" gradientTransform="translate(260.12 -83.16) rotate(-11.48)" xlink:href="#linear-gradient-4"/><linearGradient id="linear-gradient-9" x1="1899.33" y1="2908.29" x2="1780.93" y2="-596.45" gradientUnits="userSpaceOnUse"><stop offset="0" stop-color="#09005d"/><stop offset="1" stop-color="#1a0f91"/></linearGradient><linearGradient id="linear-gradient-10" x1="1476.95" y1="1062.07" x2="1871.63" y2="1748.81" gradientTransform="translate(2456.59 -576.88) rotate(76.72)" gradientUnits="userSpaceOnUse"><stop offset="0" stop-color="#ff928e"/><stop offset="1" stop-color="#fe7062"/></linearGradient><linearGradient id="linear-gradient-11" x1="1384.76" y1="1115.06" x2="1779.44" y2="1801.8" gradientTransform="matrix(1, 0, 0, 1, 0, 0)" xlink:href="#linear-gradient-10"/><linearGradient id="linear-gradient-12" x1="1205.13" y1="1709.57" x2="2444.42" y2="2700.21" gradientUnits="userSpaceOnUse"><stop offset="0" stop-color="#4f52ff"/><stop offset="1" stop-color="#4042e2"/></linearGradient><linearGradient id="linear-gradient-13" x1="1416.44" y1="1445.23" x2="2655.73" y2="2435.87" xlink:href="#linear-gradient-12"/><linearGradient id="linear-gradient-14" x1="1676.05" y1="1714.19" x2="1207.28" y2="2514.29" xlink:href="#linear-gradient-12"/><linearGradient id="linear-gradient-15" x1="1761.88" y1="1764.47" x2="1293.1" y2="2564.57" xlink:href="#linear-gradient-12"/><linearGradient id="linear-gradient-16" x1="1834.03" y1="1961.71" x2="1217.22" y2="2821.72" xlink:href="#linear-gradient-12"/><linearGradient id="linear-gradient-17" x1="1933.52" y1="1865.04" x2="1464.74" y2="2665.13" xlink:href="#linear-gradient-12"/><linearGradient id="linear-gradient-18" x1="2084.86" y1="463.85" x2="1492.72" y2="1242.79" gradientUnits="userSpaceOnUse"><stop offset="0" stop-color="#2b3582"/><stop offset="1" stop-color="#150e42"/></linearGradient><linearGradient id="linear-gradient-19" x1="2149.82" y1="513.22" x2="1557.68" y2="1292.17" xlink:href="#linear-gradient-18"/><linearGradient id="linear-gradient-20" x1="1984.74" y1="1416.96" x2="2502.21" y2="678.21" gradientTransform="matrix(1, 0, 0, 1, 0, 0)" xlink:href="#linear-gradient-10"/><linearGradient id="linear-gradient-21" x1="2075.2" y1="560.87" x2="1666.34" y2="1311.62" xlink:href="#linear-gradient-12"/><linearGradient id="linear-gradient-22" x1="-883.32" y1="3141.35" x2="-700.62" y2="3141.35" gradientTransform="matrix(-1, 0, 0, 1, 2012.38, 0)" gradientUnits="userSpaceOnUse"><stop offset="0" stop-color="#090056"/><stop offset="1" stop-color="#020039"/></linearGradient><linearGradient id="linear-gradient-23" x1="2574.63" y1="2908.9" x2="2955.27" y2="3345.67" gradientTransform="matrix(1, 0, 0, 1, 0, 0)" xlink:href="#linear-gradient-22"/><linearGradient id="linear-gradient-24" x1="-1204.27" y1="3141.81" x2="-1118.72" y2="3141.81" xlink:href="#linear-gradient-22"/><linearGradient id="linear-gradient-25" x1="2783.18" y1="2727.14" x2="3163.82" y2="3163.92" gradientTransform="matrix(1, 0, 0, 1, 0, 0)" xlink:href="#linear-gradient-22"/><linearGradient id="linear-gradient-26" x1="-1168.09" y1="3082.83" x2="-1112.58" y2="3082.83" gradientTransform="matrix(-1, 0, 0, 1, 2012.38, 0)" gradientUnits="userSpaceOnUse"><stop offset="0" stop-color="#febbba"/><stop offset="1" stop-color="#ff928e"/></linearGradient><linearGradient id="linear-gradient-27" x1="-874.03" y1="3079.2" x2="-827.76" y2="3079.2" xlink:href="#linear-gradient-26"/><linearGradient id="linear-gradient-28" x1="4069.38" y1="3314.68" x2="3019.54" y2="2785.81" gradientTransform="matrix(1, 0, 0, 1, 0, 0)" xlink:href="#linear-gradient-22"/><linearGradient id="linear-gradient-29" x1="-758.99" y1="2367.94" x2="-948.34" y2="2612.74" gradientTransform="matrix(-1, 0, 0, 1, 2012.38, 0)" gradientUnits="userSpaceOnUse"><stop offset="0" stop-color="#cb236d"/><stop offset="1" stop-color="#4c246d"/></linearGradient><linearGradient id="linear-gradient-30" x1="2591.12" y1="1581.93" x2="3262.27" y2="2842.24" xlink:href="#linear-gradient-12"/><linearGradient id="linear-gradient-31" x1="-534.79" y1="1799.84" x2="-513.15" y2="1666.4" gradientTransform="matrix(-0.99, -0.11, -0.11, 0.99, 2450.67, 67.67)" xlink:href="#linear-gradient-26"/><linearGradient id="linear-gradient-32" x1="-463.43" y1="1581.15" x2="-610.85" y2="1693.95" gradientTransform="matrix(-0.99, -0.11, -0.11, 0.99, 2450.67, 67.67)" xlink:href="#linear-gradient-26"/><linearGradient id="linear-gradient-33" x1="2705.33" y1="1645.1" x2="3073.7" y2="1745.09" gradientTransform="matrix(1, 0, 0, 1, 0, 0)" xlink:href="#linear-gradient-22"/><linearGradient id="linear-gradient-34" x1="-481.72" y1="1557.25" x2="-629.14" y2="1670.05" gradientTransform="matrix(-0.99, -0.11, -0.11, 0.99, 2450.67, 67.67)" xlink:href="#linear-gradient-26"/><linearGradient id="linear-gradient-35" x1="4241.94" y1="4640.35" x2="3290.1" y2="5889.95" gradientTransform="translate(-2853.69 5014.25) rotate(-79.31)" xlink:href="#linear-gradient-10"/><linearGradient id="linear-gradient-36" x1="2431.7" y1="1875.97" x2="3068.45" y2="2728.48" gradientTransform="matrix(1, 0, 0, 1, 0, 0)" xlink:href="#linear-gradient-10"/><linearGradient id="linear-gradient-37" x1="2431.73" y1="1875.95" x2="3068.48" y2="2728.46" gradientTransform="matrix(1, 0, 0, 1, 0, 0)" xlink:href="#linear-gradient-10"/><linearGradient id="linear-gradient-38" x1="2707.62" y1="1519.89" x2="3378.77" y2="2780.2" xlink:href="#linear-gradient-12"/><linearGradient id="linear-gradient-39" x1="2973.64" y1="2416.98" x2="3195.98" y2="2097.29" gradientTransform="matrix(1, 0, 0, 1, 0, 0)" xlink:href="#linear-gradient-26"/></defs><title>info_vector</title><g id="Background"><rect class="cls-1" width="3710" height="3710"/></g><g id="Illustration"><path class="cls-2" d="M2910.39,2828.13c-503.73,531.57-1277.48,374.32-1391.85,349-144.09-31.84-486.9-107.59-742.72-406.66-391.65-457.87-352.1-1173.46-49.63-1655.9,88-140.37,384.2-557.55,940.41-648.25,32.51-5.3,613.32-90.46,1080.65,301.65,63,52.87,164.71,148.61,253.85,288C3277.61,1488.51,3408.47,2302.51,2910.39,2828.13Z"/><path class="cls-3" d="M1818.9,597.82a46.75,46.75,0,0,1,61.5-34.69c177.66,63.35,790.39,272.6,1318.77,342.27a43.23,43.23,0,0,1,37.15,49.49L2928.93,2927.06a49.75,49.75,0,0,1-56.52,41.55c-221.42-33.14-1132.59-172.93-1446.74-274.28a39.41,39.41,0,0,1-26.46-45.44Z"/><path class="cls-4" d="M1830.14,651.23a45,45,0,0,1,59.19-33.38c171,61,760.63,262.33,1269.11,329.38a41.6,41.6,0,0,1,35.75,47.63l-295.82,1897.9a47.86,47.86,0,0,1-54.39,40C2630.9,2900.85,1754,2766.33,1451.72,2668.8a37.94,37.94,0,0,1-25.47-43.73Z"/><path class="cls-5" d="M1996.69,807.76a27.8,27.8,0,0,0-34.12,22.52l-66.11,406.32a26.14,26.14,0,0,0,19.68,29.63c74.08,17.81,305.1,72.42,437.66,93.22a29.2,29.2,0,0,0,32.87-21.92c18.41-74.93,70.17-293.42,72.32-388.86A32.94,32.94,0,0,0,2433.91,916Z"/><circle class="cls-6" cx="2185.71" cy="1027.56" r="88.4" transform="translate(437.94 2694.44) rotate(-68.82)"/><path class="cls-7" d="M2000.8,1253.83l275.58,58.08a21.81,21.81,0,0,0,24.85-29.12c-15.69-41.56-53.32-105.69-138.65-121.14-82.24-14.89-140.94,23.51-172.64,53.23A22.79,22.79,0,0,0,2000.8,1253.83Z"/><g class="cls-8"><path class="cls-1" d="M3057.19,1097.56c8.63,1.82,16.8-2.81,18.15-10.28s-4.59-15.19-13.18-17.16L2581,959.71c-8.59-2-14.68,3.57-13.53,12.31l.93,7.05c1.15,8.75,9.15,17.39,17.78,19.21Z"/></g><g class="cls-8"><path class="cls-1" d="M2565.15,1034.72c-8.6-2-14.69,3.57-13.54,12.32l.93,7c1.15,8.74,9.15,17.38,17.78,19.2l471.06,99.28c8.63,1.82,16.8-2.8,18.15-10.27s-4.59-15.2-13.18-17.17Z"/></g><g class="cls-8"><path class="cls-1" d="M2549.11,1110.83c-8.6-2-14.69,3.57-13.54,12.31l.93,7c1.15,8.75,9.15,17.39,17.78,19.21l471.06,99.28c8.64,1.82,16.8-2.81,18.15-10.28s-4.59-15.19-13.18-17.17Z"/></g><g class="cls-8"><path class="cls-1" d="M2994.91,1625.58c8.63,1.82,16.57-2.85,17.65-10.38s-5.1-15.23-13.72-17.12l-1129.7-247.41c-8.61-1.88-12.43,3-8.47,10.91l6.8,13.56c4,7.89,14.24,15.83,22.88,17.64Z"/></g><g class="cls-8"><path class="cls-1" d="M1853.34,1425.69c-8.62-1.89-12.44,3-8.48,10.9l6.8,13.56c3.95,7.89,14.24,15.83,22.88,17.65L2979.1,1700.59c8.63,1.82,16.57-2.85,17.65-10.38s-5.1-15.23-13.72-17.11Z"/></g><path class="cls-4" d="M1821.83,1549.86c27.65,3.65,78.8,13.42,106.93,18.94a26,26,0,0,1,21,24.73c.68,23.58-.06,64.11-9.7,105.2a23.08,23.08,0,0,1-27.44,17.3l-103.26-22.93a25.39,25.39,0,0,1-19.73-27.7l11.42-99.28A18.51,18.51,0,0,1,1821.83,1549.86Z"/><g class="cls-8"><path class="cls-1" d="M2004.8,1630.18c-8.55-2.18-16,3.24-16.48,12l-1,17.21a19.26,19.26,0,0,0,14.75,19.32l251.36,53a15.84,15.84,0,0,0,18.81-12.43l.84-4.25a17.18,17.18,0,0,0-12.43-19.7Z"/></g><path class="cls-4" d="M2385.67,1668.69c27.65,3.65,78.81,13.42,106.93,18.94a26,26,0,0,1,21,24.73c.69,23.58-.06,64.12-9.7,105.2a23.06,23.06,0,0,1-27.43,17.3l-103.27-22.92a25.41,25.41,0,0,1-19.73-27.7L2364.9,1685A18.51,18.51,0,0,1,2385.67,1668.69Z"/><g class="cls-8"><path class="cls-1" d="M2568.64,1749c-8.54-2.18-16,3.25-16.48,12l-1,17.22a19.29,19.29,0,0,0,14.76,19.32l251.36,53a15.84,15.84,0,0,0,18.8-12.42l.84-4.26a17.17,17.17,0,0,0-12.42-19.69Z"/></g><path class="cls-1" d="M1886.45,1966.94l-.27-.06-95.31-21c-13.61-3-22.9-14.77-21.59-27.36l8.49-81.9a17.81,17.81,0,0,1,6.87-12.23,21.43,21.43,0,0,1,16.13-4.13h0c8.17,1.15,19.7,2.57,31.91,4.08,25.71,3.17,57.72,7.12,75.45,10.62,12.85,2.65,22.13,12.53,22.8,24.35,1.1,19.44-6.68,54.17-15.44,91.06C1912.64,1962.32,1899.65,1969.72,1886.45,1966.94Zm-86.72-139.3a13.93,13.93,0,0,0-10.47,2.61,10.39,10.39,0,0,0-4,7.1l-8.49,81.9c-.91,8.8,5.87,17.08,15.76,19.27l95.31,21,.19,0c9.26,2,18.29-2.95,20.21-11,8.63-36.33,16.29-70.47,15.25-88.91-.47-8.27-7.46-15.42-16.77-17.41-17.47-3.46-49.32-7.39-74.92-10.54-12.24-1.51-23.8-2.94-32-4.1Z"/><path class="cls-4" d="M1808.26,1838.08c20.36,2.86,64.9,7.62,85.63,11.72,8.79,1.74,15.36,8.65,15.81,16.68.88,15.6-5.85,44.91-12.26,71.92-1.92,8.08-10.76,13-19.86,11l-76.17-16.82c-9.36-2.07-15.81-10.11-14.92-18.63l6.78-65.44C1794,1841.73,1800.72,1837,1808.26,1838.08Z"/><g class="cls-8"><path class="cls-1" d="M1981.54,1931.41A24.24,24.24,0,0,0,2001,1954l885.23,178.7a18.33,18.33,0,0,0,7.49-35.88L2010.85,1906.5A24.24,24.24,0,0,0,1981.54,1931.41Z"/></g><path class="cls-9" d="M1809.68,1851.5h0a15,15,0,0,1,19.06,9.77l11.72,37.73a4.81,4.81,0,0,0,8.48,1.41l68.65-94.17a5.33,5.33,0,0,1,9.5,4.35c-7.19,31.72-28.38,90.42-89.88,130.33,0,0-25.72-16.79-37.84-71.09A15.72,15.72,0,0,1,1809.68,1851.5Z"/><path class="cls-1" d="M1843.31,2171.63l-.27-.06-95.31-21c-13.61-3-22.9-14.77-21.59-27.36l8.49-81.9a17.81,17.81,0,0,1,6.87-12.23,21.43,21.43,0,0,1,16.13-4.13h0c8.17,1.15,19.7,2.57,31.91,4.08,25.71,3.17,57.72,7.12,75.45,10.62l.39.08c12.56,2.65,21.75,12.57,22.41,24.27,1.1,19.44-6.68,54.17-15.44,91.06C1869.5,2167,1856.51,2174.41,1843.31,2171.63Zm-86.72-139.3a13.89,13.89,0,0,0-10.47,2.61,10.32,10.32,0,0,0-4,7.1l-8.5,81.9c-.91,8.8,5.87,17.08,15.76,19.27l95.31,21,.19,0c9.26,1.95,18.3-2.95,20.21-11,8.63-36.34,16.29-70.47,15.25-88.91-.47-8.26-7.54-15.62-16.77-17.41-17.47-3.46-49.32-7.39-74.91-10.55-12.25-1.51-23.81-2.93-32-4.09Z"/><path class="cls-4" d="M1765.12,2042.77c20.36,2.86,64.9,7.62,85.63,11.72,8.79,1.74,15.36,8.65,15.81,16.68.88,15.6-5.85,44.91-12.26,71.91-1.92,8.09-10.76,13-19.86,11l-76.17-16.82c-9.36-2.07-15.81-10.11-14.92-18.63l6.78-65.45C1750.84,2046.41,1757.58,2041.71,1765.12,2042.77Z"/><g class="cls-8"><path class="cls-1" d="M1938.4,2136.1a24.25,24.25,0,0,0,19.41,22.54L2843,2337.34a18.33,18.33,0,0,0,7.49-35.88l-882.82-190.27A24.24,24.24,0,0,0,1938.4,2136.1Z"/></g><path class="cls-10" d="M1766.54,2056.19h0a15,15,0,0,1,19.06,9.76l11.72,37.74a4.81,4.81,0,0,0,8.48,1.41l68.65-94.17a5.33,5.33,0,0,1,9.5,4.35c-7.19,31.72-28.38,90.42-89.88,130.33,0,0-25.72-16.8-37.84-71.09A15.71,15.71,0,0,1,1766.54,2056.19Z"/><path class="cls-1" d="M1800.17,2376.31l-.26,0-95.31-21.05c-13.62-3-22.91-14.76-21.6-27.35l8.49-81.9a17.81,17.81,0,0,1,6.87-12.23,21.42,21.42,0,0,1,16.14-4.13h0c8.16,1.14,19.69,2.57,31.9,4.07,25.71,3.18,57.72,7.13,75.45,10.63l.39.08c12.56,2.65,21.75,12.57,22.41,24.26,1.1,19.45-6.68,54.17-15.44,91.07C1826.36,2371.69,1813.37,2379.1,1800.17,2376.31ZM1713.45,2237a13.89,13.89,0,0,0-10.47,2.61,10.35,10.35,0,0,0-4,7.1l-8.49,81.9c-.91,8.8,5.87,17.08,15.76,19.27l95.31,21,.19,0c9.26,1.95,18.3-2.95,20.21-11,8.63-36.34,16.29-70.48,15.25-88.92-.47-8.26-7.53-15.64-16.77-17.41-17.47-3.45-49.32-7.38-74.91-10.54-12.25-1.51-23.81-2.94-32-4.09Z"/><path class="cls-4" d="M1722,2247.46c20.36,2.85,64.9,7.62,85.63,11.72,8.79,1.74,15.36,8.65,15.81,16.68.88,15.6-5.85,44.91-12.26,71.91-1.92,8.09-10.76,13-19.86,11L1715.13,2342c-9.36-2.07-15.8-10.11-14.92-18.63l6.78-65.45C1707.7,2251.1,1714.44,2246.4,1722,2247.46Z"/><g class="cls-8"><path class="cls-1" d="M1895.26,2340.79a24.26,24.26,0,0,0,19.41,22.54L2799.9,2542a18.33,18.33,0,0,0,7.49-35.88l-882.82-190.27A24.24,24.24,0,0,0,1895.26,2340.79Z"/></g><path class="cls-11" d="M1723.4,2260.88h0a15,15,0,0,1,19.06,9.76l11.72,37.74a4.81,4.81,0,0,0,8.48,1.41l68.65-94.17a5.33,5.33,0,0,1,9.5,4.35c-7.19,31.72-28.37,90.42-89.88,130.33,0,0-25.72-16.8-37.84-71.09A15.71,15.71,0,0,1,1723.4,2260.88Z"/><path class="cls-1" d="M1757,2581l-.26-.05-95.31-21c-13.62-3-22.91-14.76-21.6-27.35l8.49-81.9a17.81,17.81,0,0,1,6.87-12.23,21.46,21.46,0,0,1,16.14-4.14h0c8.16,1.15,19.69,2.57,31.9,4.08,25.72,3.17,57.72,7.12,75.45,10.63l.39.08c12.56,2.64,21.75,12.57,22.41,24.26,1.1,19.45-6.68,54.17-15.44,91.07C1783.22,2576.38,1770.23,2583.79,1757,2581Zm-86.72-139.29a13.89,13.89,0,0,0-10.47,2.61,10.34,10.34,0,0,0-4,7.1l-8.5,81.9c-.91,8.8,5.87,17.08,15.76,19.26l95.31,21.05.19,0c9.26,1.95,18.3-3,20.21-11,8.63-36.34,16.29-70.48,15.25-88.92-.47-8.26-7.52-15.67-16.77-17.41-17.47-3.45-49.32-7.38-74.91-10.54-12.25-1.51-23.81-2.94-32-4.09Z"/><path class="cls-4" d="M1678.84,2452.15c20.36,2.85,64.9,7.62,85.63,11.72,8.79,1.73,15.36,8.65,15.81,16.68.88,15.6-5.85,44.91-12.26,71.91-1.92,8.09-10.76,13-19.86,11L1672,2546.64c-9.37-2.07-15.81-10.11-14.93-18.63l6.78-65.45C1664.56,2455.79,1671.3,2451.09,1678.84,2452.15Z"/><g class="cls-8"><path class="cls-1" d="M1852.12,2545.48h0a24.26,24.26,0,0,0,19.41,22.54l885.23,178.7a18.33,18.33,0,0,0,7.49-35.88l-882.82-190.27A24.23,24.23,0,0,0,1852.12,2545.48Z"/></g><path class="cls-12" d="M1680.26,2465.57h0a15,15,0,0,1,19.06,9.76l11.72,37.74a4.81,4.81,0,0,0,8.48,1.41l68.65-94.17a5.33,5.33,0,0,1,9.5,4.35c-7.19,31.72-28.37,90.42-89.88,130.33,0,0-25.72-16.8-37.84-71.1A15.71,15.71,0,0,1,1680.26,2465.57Z"/><path class="cls-3" d="M487.15,863.84a46.75,46.75,0,0,1,42.68-56.25C718,795.23,1363.5,744.12,1876.14,598.38a43.22,43.22,0,0,1,53.73,30.69l500.55,1932.19a49.76,49.76,0,0,1-35.39,60.58c-216.39,57.44-1108.21,290.75-1436.78,322.4A39.43,39.43,0,0,1,915.92,2913Z"/><path class="cls-4" d="M518.66,908.41a45,45,0,0,1,41.08-54.13C740.86,842.38,1362,793.2,1855.35,652.94a41.59,41.59,0,0,1,51.71,29.53l481.7,1859.44a47.87,47.87,0,0,1-34.06,58.29C2146.46,2655.49,1288.22,2880,972,2910.47a37.94,37.94,0,0,1-40.73-30Z"/><path class="cls-5" d="M711.27,1020.19l100.58,399.19a26.12,26.12,0,0,0,29.82,19.39c75.07-13,308.78-54.61,438.71-88.13a29.19,29.19,0,0,0,21.48-33.16c-12.85-76.09-52-297.17-87.94-385.63a33,33,0,0,0-36-20L733.65,986A27.81,27.81,0,0,0,711.27,1020.19Z"/><circle class="cls-3" cx="994.38" cy="1112.71" r="88.4" transform="translate(-183.37 2029.14) rotate(-86.1)"/><path class="cls-3" d="M914.45,1393.79l276-56.06a21.81,21.81,0,0,0,11.26-36.59c-30.9-31.92-90.89-75.85-175.34-56.16-81.4,19-120,77.5-137.34,117.37A22.79,22.79,0,0,0,914.45,1393.79Z"/><g class="cls-8"><path class="cls-1" d="M1822.08,831.1c8.64-1.75,14.3-9.24,12.57-16.63s-10.23-12.13-18.91-10.52l-485.5,89.63c-8.67,1.6-12.06,9.1-7.54,16.67l3.65,6.11c4.53,7.57,15.31,12.32,24,10.57Z"/></g><g class="cls-8"><path class="cls-1" d="M1345.5,968.71c-8.67,1.6-12.06,9.1-7.54,16.67l3.65,6.1c4.53,7.57,15.31,12.33,24,10.57l471.78-95.82c8.64-1.75,14.3-9.24,12.57-16.63s-10.23-12.13-18.91-10.53Z"/></g><g class="cls-8"><path class="cls-1" d="M1361,1044.93c-8.67,1.6-12.06,9.1-7.54,16.67l3.65,6.1c4.53,7.57,15.31,12.33,24,10.57l471.78-95.82c8.64-1.75,14.3-9.24,12.57-16.63s-10.23-12.13-18.91-10.53Z"/></g><g class="cls-8"><path class="cls-1" d="M1974.46,1340.48c8.65-1.76,14.08-9.19,12.08-16.53s-10.72-12-19.38-10.27L832.05,1534.93c-8.66,1.69-10.21,7.71-3.45,13.37l11.62,9.75c6.76,5.67,19.36,8.87,28,7.12Z"/></g><g class="cls-8"><path class="cls-1" d="M847.31,1610.06c-8.66,1.68-10.21,7.7-3.45,13.37l11.62,9.75c6.76,5.67,19.36,8.87,28,7.11l1106.24-224.68c8.65-1.76,14.08-9.2,12.08-16.53s-10.72-12-19.38-10.27Z"/></g><path class="cls-4" d="M867.67,1736.53c26.83-7.62,77.66-19,105.67-25a26,26,0,0,1,29.08,14.36c10,21.38,25.39,58.88,32.85,100.42A23.07,23.07,0,0,1,1017,1853L913.07,1873a25.4,25.4,0,0,1-29.1-17.59l-28.92-95.66A18.52,18.52,0,0,1,867.67,1736.53Z"/><g class="cls-8"><path class="cls-1" d="M1067.49,1737.64c-8.71,1.39-13.36,9.31-10.34,17.6l5.9,16.21a19.27,19.27,0,0,0,21.21,11.87L1336,1732.19a15.85,15.85,0,0,0,12.33-18.87l-.92-4.24a17.17,17.17,0,0,0-19.22-13.14Z"/></g><path class="cls-4" d="M1432.37,1621.84c26.83-7.62,77.66-19,105.67-25a26,26,0,0,1,29.08,14.36c10,21.37,25.39,58.88,32.85,100.41a23.07,23.07,0,0,1-18.32,26.77l-103.88,19.94a25.41,25.41,0,0,1-29.1-17.6L1419.75,1645A18.51,18.51,0,0,1,1432.37,1621.84Z"/><g class="cls-8"><path class="cls-1" d="M1632.19,1623c-8.71,1.39-13.36,9.31-10.34,17.6l5.9,16.2a19.27,19.27,0,0,0,21.21,11.88l251.74-51.14a15.83,15.83,0,0,0,12.33-18.86l-.92-4.24a17.18,17.18,0,0,0-19.22-13.15Z"/></g><path class="cls-1" d="M1092.5,2093.72l-.26.05-95.83,18.51c-13.69,2.64-26.89-4.47-30.68-16.54L941,2017.19a17.83,17.83,0,0,1,1.45-14,21.45,21.45,0,0,1,13.17-10.19h0c8-2.19,19.1-5.46,30.91-8.92,24.86-7.3,55.8-16.37,73.47-20.19,12.84-2.68,25.28,2.72,30.58,13.29,8.73,17.41,15.37,52.38,22,89.72C1114.72,2079.08,1105.73,2091,1092.5,2093.72Zm-134.87-93.44a13.88,13.88,0,0,0-8.57,6.55,10.31,10.31,0,0,0-.89,8.11l24.7,78.55c2.66,8.44,12.17,13.35,22.12,11.43l95.83-18.51.19,0c9.27-1.88,15.62-10,14.18-18.12-6.5-36.77-13-71.15-21.29-87.66-3.7-7.4-13-11.19-22.3-9.32-17.41,3.76-48.2,12.79-72.94,20-11.84,3.47-23,6.75-31,9Z"/><path class="cls-4" d="M969.6,2006.47c19.82-5.46,62.59-18.76,83.25-23.23,8.75-1.89,17.53,1.85,21.13,9,7,14,12.46,43.54,17.29,70.88,1.44,8.18-4.72,16.2-13.87,18l-76.58,14.79c-9.42,1.82-18.53-3-21.1-11.17L960,2022C957.94,2015.49,962.26,2008.49,969.6,2006.47Z"/><g class="cls-8"><path class="cls-1" d="M1165.69,2023.36a24.23,24.23,0,0,0,26.76,13l883.45-187.29a18.32,18.32,0,0,0-7.36-35.9l-885.83,175.71A24.23,24.23,0,0,0,1165.69,2023.36Z"/></g><path class="cls-1" d="M1134.14,2298.72l-.26.05L1038,2317.28c-13.69,2.64-26.88-4.47-30.68-16.54l-24.71-78.55a17.79,17.79,0,0,1,1.46-14,21.4,21.4,0,0,1,13.17-10.19h0c7.94-2.19,19.1-5.46,30.9-8.92,24.86-7.3,55.8-16.37,73.47-20.19l.39-.08c12.58-2.56,25,2.9,30.2,13.37,8.73,17.41,15.37,52.37,22,89.72C1156.35,2284.08,1147.37,2296,1134.14,2298.72Zm-134.87-93.44a13.86,13.86,0,0,0-8.58,6.55,10.35,10.35,0,0,0-.89,8.11l24.71,78.55c2.66,8.43,12.16,13.35,22.11,11.43l95.84-18.51.19,0c9.27-1.88,15.62-10,14.18-18.12-6.5-36.77-13-71.15-21.29-87.66-3.71-7.4-13.11-11.35-22.3-9.33-17.41,3.77-48.2,12.8-73,20.06-11.83,3.47-23,6.75-31,9Z"/><path class="cls-4" d="M1011.24,2211.47c19.82-5.46,62.59-18.76,83.25-23.23,8.75-1.89,17.53,1.85,21.13,9,7,14,12.45,43.54,17.28,70.88,1.45,8.18-4.71,16.2-13.86,18l-76.59,14.79c-9.41,1.82-18.52-3-21.09-11.18L1001.62,2227C999.57,2220.49,1003.9,2213.49,1011.24,2211.47Z"/><g class="cls-8"><path class="cls-1" d="M1207.33,2228.36a24.23,24.23,0,0,0,26.76,13l883.45-187.29a18.32,18.32,0,0,0-7.37-35.9l-885.82,175.71A24.23,24.23,0,0,0,1207.33,2228.36Z"/></g><path class="cls-1" d="M1175.78,2503.71l-.26.06-95.84,18.51c-13.69,2.64-26.88-4.46-30.68-16.54l-24.71-78.54a17.81,17.81,0,0,1,1.46-14,21.4,21.4,0,0,1,13.17-10.19h0c7.94-2.19,19.09-5.46,30.9-8.92,24.86-7.3,55.8-16.37,73.47-20.19l.38-.08c12.58-2.56,25,2.9,30.21,13.37,8.72,17.41,15.37,52.37,22,89.72C1198,2489.08,1189,2501,1175.78,2503.71Zm-134.87-93.44a13.88,13.88,0,0,0-8.58,6.56,10.37,10.37,0,0,0-.89,8.12l24.71,78.54c2.65,8.44,12.16,13.35,22.11,11.43l95.84-18.51.19,0c9.27-1.88,15.61-10,14.18-18.12-6.5-36.77-13-71.15-21.29-87.66-3.71-7.4-13.12-11.37-22.31-9.33-17.4,3.77-48.2,12.8-72.94,20.06-11.84,3.47-23,6.75-31,8.95Z"/><path class="cls-4" d="M1052.88,2416.47c19.81-5.46,62.58-18.76,83.24-23.23,8.76-1.89,17.53,1.85,21.14,9,7,14,12.45,43.54,17.28,70.88,1.45,8.18-4.71,16.2-13.86,18l-76.59,14.79c-9.42,1.82-18.52-3-21.09-11.18L1043.25,2432C1041.21,2425.49,1045.53,2418.49,1052.88,2416.47Z"/><g class="cls-8"><path class="cls-1" d="M1249,2433.36a24.23,24.23,0,0,0,26.76,13l883.45-187.29a18.32,18.32,0,0,0-7.37-35.9L1266,2398.87A24.23,24.23,0,0,0,1249,2433.36Z"/></g><path class="cls-1" d="M1217.42,2708.71l-.27.06-95.83,18.51c-13.69,2.64-26.88-4.47-30.68-16.54l-24.71-78.54a17.81,17.81,0,0,1,1.46-14,21.4,21.4,0,0,1,13.16-10.19h0c8-2.19,19.1-5.46,30.91-8.92,24.86-7.3,55.8-16.37,73.47-20.19l.38-.08c12.58-2.56,25,2.9,30.21,13.37,8.72,17.41,15.37,52.37,22,89.72C1239.63,2694.08,1230.64,2706,1217.42,2708.71Zm-134.88-93.44a13.86,13.86,0,0,0-8.57,6.56,10.31,10.31,0,0,0-.89,8.11l24.71,78.55c2.65,8.44,12.16,13.35,22.11,11.43l95.83-18.51.2,0c9.26-1.88,15.61-10,14.17-18.12-6.49-36.78-13-71.15-21.29-87.66-3.7-7.4-13.12-11.4-22.3-9.33-17.4,3.77-48.2,12.8-72.94,20.06-11.84,3.47-23,6.75-31,8.95Z"/><path class="cls-4" d="M1094.51,2621.47c19.82-5.46,62.59-18.76,83.25-23.23,8.76-1.89,17.53,1.85,21.13,9,7,14,12.46,43.54,17.29,70.88,1.44,8.18-4.72,16.2-13.87,18l-76.58,14.79c-9.42,1.82-18.52-3-21.1-11.18L1084.89,2637C1082.85,2630.48,1087.17,2623.49,1094.51,2621.47Z"/><g class="cls-8"><path class="cls-1" d="M1290.6,2638.36h0a24.23,24.23,0,0,0,26.76,13l883.45-187.29a18.32,18.32,0,0,0-7.36-35.9l-885.83,175.71A24.24,24.24,0,0,0,1290.6,2638.36Z"/></g><path class="cls-13" d="M1101.14,2633.23h0a15,15,0,0,1,21.37,1.39l25.74,30a4.81,4.81,0,0,0,8.34-2.08l25.63-113.67a5.33,5.33,0,0,1,10.45.22c6,32,9.84,94.25-30.77,155.3,0,0-30.28-5.21-63-50.24A15.71,15.71,0,0,1,1101.14,2633.23Z"/><path class="cls-3" d="M1060.13,2535.54c8.77,92.05,29.37,213.76,54.12,318.63h15.55c-32-126.56-61.47-299.88-52.79-499.67,8.74-201.48,58.09-446.11-33.92-563-76.58-97.25-401.54-111.79-508.4-113.93A15.77,15.77,0,0,0,522,1703.17c41,51.54,126.75,170.92,134.22,275.16,9.85,137.4,116.64,245.24,222.74,290.14S1042.22,2347.6,1060.13,2535.54Z"/><path class="cls-14" d="M668.3,1762.53a512.31,512.31,0,0,1,182.28,87.73,401,401,0,0,1,73.24,71.32c21.07,27,38.76,56.87,51,89l4.55,12c1.48,4,2.6,8.18,3.91,12.27s2.58,8.24,3.66,12.3l3.25,12.22q6.54,24.41,12.77,48.9,12.43,49,23.31,98.36c14.55,65.81,27.07,132.06,35.51,199.05a2.94,2.94,0,0,1-5.8.9l0-.09c-6-33-12.63-65.95-19.89-98.73q-10.66-49.24-22.48-98.21l-12-48.94-12.5-48.79q-6.24-24.41-12.88-48.7L973,2051c-1.08-4.06-2.39-7.91-3.57-11.87s-2.28-7.92-3.69-11.78l-4.29-11.58c-11.54-30.88-28.55-59.47-48.38-85.82a379.93,379.93,0,0,0-32.73-37.21l-4.36-4.42-4.53-4.25c-3-2.82-6-5.72-9.09-8.48-6.26-5.43-12.46-10.95-19-16-25.85-20.87-54.24-38.59-83.75-54.13a534.25,534.25,0,0,0-92.42-38.29l-.15,0a2.35,2.35,0,0,1,1.27-4.53Z"/><path class="cls-3" d="M1063.19,2660.22c55.58,81.59,48.44,127.25,50.15,165.92.3,6.86.68,16.57,1.48,28H1130a332.85,332.85,0,0,1-6.08-47.17c-5.41-106.8-29.5-289.08-121.6-398.12s-192.95-119-320-19.86c-105.9,82.61-172,124.29-210.7,132a14.64,14.64,0,0,0-9.82,21.35c24.84,45.76,95.1,150.87,213,143.46C825.27,2676.44,1007.62,2578.63,1063.19,2660.22Z"/><path class="cls-14" d="M725.33,2520.35a300.75,300.75,0,0,1,26.24-21.95c9.09-6.87,18.47-13.41,28.23-19.38,19.45-12,40.21-22.26,62.31-29.32A196,196,0,0,1,876.2,2442a145.65,145.65,0,0,1,35.35-.13c2.94.47,5.91.75,8.82,1.41s5.88,1.23,8.68,2l16.59,5.14,16.23,6.31,15.73,7.56a197.82,197.82,0,0,1,54.79,42.84c15.65,17.25,27.88,37.12,37.95,57.71l3.78,7.73c1.3,2.56,2.24,5.27,3.37,7.9,2.14,5.31,4.45,10.55,6.44,15.9l5.59,16.19c2,5.36,3.23,10.93,4.83,16.39,6.31,21.89,10.65,44.2,14.4,66.54a2.29,2.29,0,0,1-4.48.92v-.07c-5.3-21.89-10.4-43.81-17.69-65-3.3-10.71-7.5-21.08-11.39-31.54-2.1-5.17-4.5-10.2-6.73-15.3-1.17-2.52-2.16-5.14-3.49-7.57l-3.88-7.38a250.76,250.76,0,0,0-37.6-54.23,192.89,192.89,0,0,0-51.9-39.61l-14.84-7-15.37-5.89-15.79-4.8c-2.63-.75-5.2-1.24-7.79-1.88s-5.27-.86-7.89-1.31a132.46,132.46,0,0,0-32.21-.08,184.19,184.19,0,0,0-32.05,6.5c-21.12,6.15-41.47,15.33-61,26-9.74,5.41-19.39,11.07-28.76,17.2s-18.57,12.62-27.37,19.43l-.05,0a2.38,2.38,0,0,1-3.1-3.6Z"/><path class="cls-15" d="M1066.33,1061.87a151.37,151.37,0,0,1,151.38-151.38H2505.07a133.37,133.37,0,0,1,133.2,126.58l95,1866.44a98.34,98.34,0,0,1-96.43,103.33l-1475.48,26.82a93.36,93.36,0,0,1-95.05-93.34Z"/><path class="cls-3" d="M1171.8,939.21a44,44,0,0,1,49.87-43.85c175.8,23.84,780.33,97.57,1280.15,59.2a40.66,40.66,0,0,1,43.79,38.35l99.64,1874.75a46.79,46.79,0,0,1-44,49.21c-210.21,12.44-1075.95,60.53-1384.74,28.19a37.07,37.07,0,0,1-33.17-36.69Z"/><path class="cls-4" d="M1192.5,986.19a42.32,42.32,0,0,1,48-42.2c169.18,22.94,751,93.9,1231.95,57a39.14,39.14,0,0,1,42.14,36.91L2610.48,2842a45,45,0,0,1-42.31,47.35c-202.3,12-1035.43,58.25-1332.6,27.13a35.69,35.69,0,0,1-31.92-35.31Z"/><path class="cls-5" d="M1349.12,1125.29l18,386.8a24.58,24.58,0,0,0,23.86,23.45c71.63,2,294.85,7.47,420.89.9a27.46,27.46,0,0,0,26-26.55c2.41-72.54,7.67-283.67-8.86-371.92a31,31,0,0,0-29.42-25.21L1376.15,1098A26.14,26.14,0,0,0,1349.12,1125.29Z"/><circle class="cls-16" cx="1592.76" cy="1263.58" r="83.15" transform="translate(-2.96 2523.41) rotate(-76.72)"/><path class="cls-17" d="M1466.46,1507.7h264.9a20.51,20.51,0,0,0,17.22-31.62c-22.5-35.21-69.57-86.93-151.1-84.6-78.58,2.25-125.16,49-148.57,82.48A21.44,21.44,0,0,0,1466.46,1507.7Z"/><g class="cls-8"><path class="cls-1" d="M2408.42,1159c8.3,0,14.92-5.84,14.71-13s-7.17-13.1-15.46-13.25l-464.3-8.27c-8.3-.15-12.83,6.13-10.07,14l2.22,6.3c2.75,7.83,11.8,14.23,20.09,14.23Z"/></g><g class="cls-8"><path class="cls-1" d="M1943.37,1196.57c-8.3-.14-12.83,6.14-10.07,14l2.22,6.31c2.75,7.83,11.8,14.23,20.09,14.23h452.81c8.3,0,14.92-5.84,14.71-13s-7.17-13.09-15.46-13.24Z"/></g><g class="cls-8"><path class="cls-1" d="M1943.37,1269.73c-8.3-.15-12.83,6.13-10.07,14l2.22,6.31c2.75,7.82,11.8,14.22,20.09,14.22h452.81c8.3,0,14.92-5.84,14.71-13s-7.17-13.1-15.46-13.25Z"/></g><g class="cls-8"><path class="cls-1" d="M2453.52,1657c8.3,0,14.7-5.84,14.23-13s-7.64-13-15.94-13.09l-1087.73-8.58c-8.3-.06-10.86,5.2-5.69,11.69l8.89,11.16c5.16,6.49,16.18,11.8,24.48,11.8Z"/></g><g class="cls-8"><path class="cls-1" d="M1364.08,1694.48c-8.3-.06-10.86,5.19-5.69,11.68l8.89,11.16c5.16,6.5,16.18,11.81,24.48,11.81H2453.52c8.3,0,14.7-5.84,14.23-13s-7.64-13-15.94-13.1Z"/></g><path class="cls-18" d="M1359.17,1814.87c26.15-2,75.13-2.93,102.08-3.31a24.45,24.45,0,0,1,24.13,18.69c5.2,21.57,12.38,59,11.47,98.71A21.69,21.69,0,0,1,1475,1950.2l-99.49-1.07a23.89,23.89,0,0,1-23.53-21.67l-8.74-93.59A17.41,17.41,0,0,1,1359.17,1814.87Z"/><g class="cls-8"><path class="cls-1" d="M1543.15,1853.31c-8.29-.35-14.07,6.08-12.83,14.28l2.41,16.05a18.11,18.11,0,0,0,17.32,14.91h241.62a14.9,14.9,0,0,0,14.9-15.08l0-4.08a16.15,16.15,0,0,0-15.26-15.71Z"/></g><path class="cls-19" d="M1901.16,1814.87c26.16-2,75.13-2.93,102.09-3.31a24.44,24.44,0,0,1,24.12,18.69c5.21,21.57,12.38,59,11.48,98.71A21.69,21.69,0,0,1,2017,1950.2l-99.49-1.07a23.89,23.89,0,0,1-23.53-21.67l-8.75-93.59A17.42,17.42,0,0,1,1901.16,1814.87Z"/><g class="cls-8"><path class="cls-1" d="M2085.14,1853.31c-8.29-.35-14.06,6.08-12.83,14.28l2.41,16.05a18.12,18.12,0,0,0,17.33,14.91h241.62a14.9,14.9,0,0,0,14.9-15.08l-.06-4.08a16.13,16.13,0,0,0-15.25-15.71Z"/></g><path class="cls-1" d="M1499.54,2186.21h-.25l-91.81-.88c-13.11-.13-23.94-9.15-25.18-21l-8.07-77a16.77,16.77,0,0,1,4-12.59,20.19,20.19,0,0,1,14-6.93h0c7.73-.52,18.63-1.45,30.16-2.43,24.28-2.07,54.5-4.64,71.5-4.86,12.33-.06,22.8,7.24,25.71,18,4.78,17.68,4.36,51.16,3.45,86.81C1522.75,2176.87,1512.23,2186.21,1499.54,2186.21Zm-106.83-111.38a13.06,13.06,0,0,0-9.13,4.43,9.77,9.77,0,0,0-2.34,7.32l8.07,77c.87,8.28,8.71,14.59,18.24,14.68l91.81.88h.18c8.9,0,16.26-6.27,16.46-14,.9-35.11,1.33-68-3.21-84.79-2-7.51-9.85-12.74-18.81-12.77-16.75.21-46.83,2.77-71,4.83-11.57,1-22.49,1.91-30.28,2.45Z"/><path class="cls-4" d="M1402.59,2082.78c19.28-1.32,61.2-5.58,81.08-5.82,8.42-.11,15.81,5,17.79,12.28,3.83,14.19,3.32,42.47,2.66,68.57-.2,7.81-7.38,14.05-16.15,14l-73.36-.71c-9-.08-16.51-6.23-17.35-14.24l-6.45-61.56C1390.14,2088.9,1395.44,2083.27,1402.59,2082.78Z"/><g class="cls-8"><path class="cls-1" d="M1580.17,2135.06a22.79,22.79,0,0,0,22.24,17l849.4-7.24a17.24,17.24,0,0,0-.07-34.47l-849.42-3.87A22.79,22.79,0,0,0,1580.17,2135.06Z"/></g><path class="cls-20" d="M1406.5,2094.86h0a14.08,14.08,0,0,1,19.43,5.28L1444,2132.6a4.52,4.52,0,0,0,8.08-.35l44.91-100a5,5,0,0,1,9.59,2.16c-.46,30.59-8.58,88.72-57.45,137.38,0,0-26.93-10.46-48.61-58.09A14.76,14.76,0,0,1,1406.5,2094.86Z"/><path class="cls-1" d="M1499.54,2383h-.25l-91.81-.88c-13.11-.13-23.94-9.16-25.18-21l-8.07-77a16.77,16.77,0,0,1,4-12.59,20.19,20.19,0,0,1,14-6.93h0c7.73-.53,18.63-1.46,30.16-2.44,24.28-2.07,54.5-4.64,71.5-4.85h.37c12.07,0,22.46,7.35,25.34,18,4.78,17.68,4.36,51.15,3.45,86.81C1522.75,2373.63,1512.23,2383,1499.54,2383Zm-106.83-111.38a13,13,0,0,0-9.13,4.43,9.75,9.75,0,0,0-2.34,7.31l8.07,77c.87,8.27,8.71,14.58,18.24,14.68l91.81.88h.18c8.9,0,16.26-6.27,16.46-14.05.9-35.12,1.33-68-3.21-84.79-2-7.51-10-12.91-18.81-12.77-16.75.21-46.83,2.77-71,4.83-11.57,1-22.49,1.91-30.28,2.45Z"/><path class="cls-4" d="M1402.59,2279.54c19.28-1.32,61.2-5.58,81.08-5.83,8.42-.1,15.81,5,17.79,12.29,3.83,14.19,3.32,42.47,2.66,68.57-.2,7.81-7.38,14-16.15,14l-73.36-.71c-9-.08-16.51-6.24-17.35-14.25l-6.45-61.55C1390.14,2285.66,1395.44,2280,1402.59,2279.54Z"/><g class="cls-8"><path class="cls-1" d="M1580.17,2331.82a22.79,22.79,0,0,0,22.24,17l849.4-7.24a17.24,17.24,0,0,0-.07-34.47l-849.42-3.88A22.8,22.8,0,0,0,1580.17,2331.82Z"/></g><path class="cls-21" d="M1406.5,2291.61h0a14.09,14.09,0,0,1,19.43,5.29l18.11,32.46a4.52,4.52,0,0,0,8.08-.35L1497,2229a5,5,0,0,1,9.59,2.17c-.46,30.58-8.58,88.72-57.45,137.38,0,0-26.93-10.47-48.61-58.09A14.78,14.78,0,0,1,1406.5,2291.61Z"/><path class="cls-1" d="M1499.54,2579.72h-.25l-91.81-.88c-13.11-.12-23.94-9.14-25.18-21l-8.07-77a16.77,16.77,0,0,1,4-12.59,20.19,20.19,0,0,1,14-6.93h0c7.73-.53,18.63-1.46,30.16-2.44,24.28-2.07,54.5-4.64,71.5-4.85h.37c12.07,0,22.46,7.36,25.34,18,4.78,17.68,4.36,51.15,3.45,86.81C1522.75,2570.39,1512.23,2579.72,1499.54,2579.72Zm-106.83-111.38a13.07,13.07,0,0,0-9.13,4.44,9.74,9.74,0,0,0-2.34,7.31l8.07,77c.87,8.27,8.71,14.58,18.24,14.67l91.81.88h.18c8.9,0,16.26-6.26,16.46-14,.9-35.12,1.33-68-3.21-84.79-2-7.51-10-12.94-18.81-12.77-16.75.21-46.83,2.77-71,4.83-11.57,1-22.49,1.91-30.28,2.44Z"/><path class="cls-4" d="M1402.59,2476.29c19.28-1.32,61.2-5.57,81.08-5.82,8.42-.1,15.81,5,17.79,12.29,3.83,14.19,3.32,42.46,2.66,68.56-.2,7.82-7.38,14.06-16.15,14l-73.36-.7c-9-.09-16.51-6.24-17.35-14.25l-6.45-61.55C1390.14,2482.42,1395.44,2476.78,1402.59,2476.29Z"/><g class="cls-8"><path class="cls-1" d="M1580.17,2528.58a22.79,22.79,0,0,0,22.24,17l849.4-7.24a17.24,17.24,0,0,0-.07-34.47L1602.32,2500A22.8,22.8,0,0,0,1580.17,2528.58Z"/></g><path class="cls-22" d="M1406.5,2488.37h0a14.09,14.09,0,0,1,19.43,5.29l18.11,32.46a4.53,4.53,0,0,0,8.08-.35l44.91-100a5,5,0,0,1,9.59,2.17c-.46,30.58-8.58,88.72-57.45,137.38,0,0-26.93-10.47-48.61-58.09A14.78,14.78,0,0,1,1406.5,2488.37Z"/><path class="cls-1" d="M1499.54,2776.48h-.25l-91.81-.88c-13.11-.12-23.94-9.15-25.18-21l-8.07-77a16.76,16.76,0,0,1,4-12.59,20.2,20.2,0,0,1,14-6.94h0c7.73-.52,18.63-1.45,30.16-2.43,24.28-2.07,54.5-4.64,71.5-4.86h.37c12.07,0,22.46,7.35,25.34,18,4.78,17.68,4.36,51.15,3.45,86.8C1522.75,2767.15,1512.23,2776.48,1499.54,2776.48ZM1392.71,2665.1a13.1,13.1,0,0,0-9.13,4.43,9.77,9.77,0,0,0-2.34,7.32l8.07,77c.87,8.27,8.71,14.58,18.24,14.67l91.81.88h.18c8.9,0,16.26-6.27,16.46-14,.9-35.12,1.33-68-3.21-84.8-2-7.51-10-13-18.81-12.77-16.75.21-46.83,2.77-71,4.83-11.57,1-22.49,1.92-30.28,2.45Z"/><path class="cls-4" d="M1402.59,2673.05c19.28-1.32,61.2-5.57,81.08-5.82,8.42-.11,15.81,5,17.79,12.29,3.83,14.18,3.32,42.46,2.66,68.56-.2,7.82-7.38,14.06-16.15,14l-73.36-.7c-9-.09-16.51-6.24-17.35-14.25l-6.45-61.56C1390.14,2679.18,1395.44,2673.54,1402.59,2673.05Z"/><g class="cls-8"><path class="cls-1" d="M1580.17,2725.34h0a22.79,22.79,0,0,0,22.24,17l849.4-7.24a17.24,17.24,0,0,0-.07-34.48l-849.42-3.87A22.8,22.8,0,0,0,1580.17,2725.34Z"/></g><path class="cls-23" d="M1406.5,2685.13h0a14.09,14.09,0,0,1,19.43,5.29l18.11,32.46a4.53,4.53,0,0,0,8.08-.35l44.91-100a5,5,0,0,1,9.59,2.16c-.46,30.59-8.58,88.72-57.45,137.39,0,0-26.93-10.47-48.61-58.09A14.77,14.77,0,0,1,1406.5,2685.13Z"/><path class="cls-24" d="M1941.23,656c-46.5-32.35-86.93-31.71-115.39-23.31a56.77,56.77,0,0,0-40.33,59.68l12.28,134,146.06,13S2032.43,719.45,1941.23,656ZM1877,764.1a36.43,36.43,0,1,1,36.42-36.43A36.42,36.42,0,0,1,1877,764.1Z"/><path class="cls-1" d="M1812.38,770a3.53,3.53,0,0,1-3.51-3.2l-1.95-21.34a3.52,3.52,0,1,1,7-.64l2,21.34a3.52,3.52,0,0,1-3.19,3.83Zm-3.83-41.81A3.53,3.53,0,0,1,1805,725l-1.48-16.2A54.18,54.18,0,0,1,1842,651.93a109.1,109.1,0,0,1,53.38-2.19,3.52,3.52,0,1,1-1.41,6.9,102.35,102.35,0,0,0-50,2.05,47.14,47.14,0,0,0-33.4,49.46l1.49,16.2a3.53,3.53,0,0,1-3.19,3.83Z"/><path class="cls-25" d="M1598.43,913V845.59a41.1,41.1,0,0,1,42.51-41.08l464.43,15.91A40,40,0,0,1,2143.91,858l3.88,64.73Z"/><path class="cls-1" d="M1771.61,829.89h-20a3.53,3.53,0,0,1,0-7h20a3.53,3.53,0,0,1,0,7Z"/><path class="cls-1" d="M1623.57,891.8a3.52,3.52,0,0,1-3.52-3.53V861a38.22,38.22,0,0,1,38.18-38.18h73.43a3.53,3.53,0,0,1,0,7h-73.43A31.17,31.17,0,0,0,1627.09,861v27.25A3.52,3.52,0,0,1,1623.57,891.8Z"/><path class="cls-26" d="M2270.74,1353l-109.33-89.14L2052.08,1353a1872.4,1872.4,0,0,0,8.17-278.93q-2.2-48.49-6.65-93.89A13.85,13.85,0,0,1,2067.39,965h190.24a13.82,13.82,0,0,1,13.82,13.1q3.65,69.67,4.54,144.1C2276.85,1203.06,2274.83,1280.12,2270.74,1353Z"/><path class="cls-27" d="M1409.2,930a43.76,43.76,0,0,1,43.71-41.66l812.14,0a60,60,0,0,1,59.15,49.79l.68,4a51.55,51.55,0,0,1-50.79,60.35H1440.88a33.52,33.52,0,0,1-33.47-35.13Z"/><path class="cls-28" d="M2827,3178.19c-42.54,2-83.72.73-111.22-.69,25-17.81,82.71-56.58,131-72l33.13-2s11.23,17.07,15.23,56.14C2889.63,3166.49,2873.59,3176.05,2827,3178.19Z"/><path class="cls-29" d="M2715.45,3177.75l.34-.25c27.5,1.42,68.68,2.65,111.22.69,46.58-2.14,62.62-11.7,68.11-18.55.19,1.8.38,3.59.53,5.49a15.51,15.51,0,0,1-14.25,16.75c-34.85,2.63-121.24,8.6-162.9,6.41A5.81,5.81,0,0,1,2715.45,3177.75Z"/><path class="cls-30" d="M3131.3,3166.8c3.12-20,8.11-48.84,12-56.22,6.06-11.59,26.79,0,26.79,0s14.55,6.78,21.25,18.09c4.27,7.21,16.08,27.73,24.08,41.66a9.29,9.29,0,0,1,1.25,5l-83,2.91A16.58,16.58,0,0,1,3131.3,3166.8Z"/><path class="cls-31" d="M3216.64,3175.28a9.44,9.44,0,0,1-9.19,9.19l-59.14,1.63a16.68,16.68,0,0,1-14.67-7.91Z"/><path class="cls-32" d="M3125,3044.19c.72,2.4,11.44,54.4,16.14,77.22a13,13,0,0,0,13.41,10.41c3.51-.17,7.6-.49,11.88-1.05a15.72,15.72,0,0,0,13.69-15c.76-20,1.14-58.37-6.21-73.24C3163.75,3022,3125,3044.19,3125,3044.19Z"/><path class="cls-33" d="M2886.41,3059.08c-4.6-.15,1.83,23.75-5.13,47.24-1.57,5.3-5.53,9.46-11.05,9.53-3.58.05-7.83,0-12.14-.37a13.33,13.33,0,0,1-12.28-12l-5.67-60.92Z"/><path class="cls-34" d="M2757.73,2411.42c2.05,10,74.53,432.73,78.93,651.48a7.45,7.45,0,0,0,6.4,7.25c9.2,1.28,27.12,2.93,44.49-.29a5.25,5.25,0,0,0,4.33-4.82c2.53-40.76,22.9-385.42-2.05-547.67,0,0,206.07,433.71,237.31,553.3a6.29,6.29,0,0,0,6.44,4.71c8.82-.47,27.18-2.05,41.75-7.42a10.91,10.91,0,0,0,6.88-12.82c-17.45-71.57-139.76-564.66-222.81-673.3Z"/><path class="cls-35" d="M2889.83,2520.08a2.71,2.71,0,0,0,1.94-4.6l-27.6-28.22a2.71,2.71,0,0,0-3.87,3.79l27.6,28.21A2.67,2.67,0,0,0,2889.83,2520.08Z"/><path class="cls-36" d="M2688,1865.89c61.65-9.27,182.65-22.55,261.58.61l-8.56,243.94-286-30.83-24.26-34.47S2642.08,1872.8,2688,1865.89Z"/><path class="cls-37" d="M2830.45,1735.29s5.71,97,4.63,127.21c0,0-79.43,13-98.34-.59l14.94-115Z"/><path class="cls-38" d="M2753.23,1638.12s-32,56.14-37,86.87-13.87,50.07,21.2,60.15,67.11-4.49,86.74-33.53c0,0,30.67-44.7,27-64.75S2753.23,1638.12,2753.23,1638.12Z"/><path class="cls-39" d="M2814.31,1728.15l-4.52-.49s22.73-36.18,7.1-44.65-79-28.67-90.53-53.17c-11.1-23.62,4-51,22.86-57a2.43,2.43,0,0,1,2.94,1.46l1.18,3a2.44,2.44,0,0,0,4.53,0h0a2.44,2.44,0,0,1,4.43-.19c3.54,7.33,13.92,19.76,44.39,28.85,43.23,12.89,70.47,33.88,67.9,64.44a2.45,2.45,0,0,0,3.55,2.39c3.47-1.63,8.78-2,15.11,4.6,11,11.49,3.22,37.37-25.67,56.25a2.42,2.42,0,0,0-.31,3.9c4.48,3.65,10.85,11.88-8.81,19.82-20.11,8.11-31.25,5.79-35.38,4.25a2.45,2.45,0,0,1-1.57-2.71l4.58-26.83a2.44,2.44,0,0,0-2.15-2.84Z"/><path class="cls-40" d="M2812.59,1733.68s13.83-36.57,29.57-24.2-13.29,41.21-27,41.16Z"/><path class="cls-41" d="M2470.08,2056.72l7.58-29.81A28.51,28.51,0,0,1,2511,2006l714.14,145.69a29.91,29.91,0,0,1,23.28,35.49l-43.53,206.38Z"/><path class="cls-1" d="M2402.37,2418.74l53.71-386a13.81,13.81,0,0,1,16.67-11.57L3206.22,2184a28.85,28.85,0,0,1,21.87,34.66l-61.55,266.85Z"/><path class="cls-1" d="M2421.74,2401.25l20.57-344.56a14.53,14.53,0,0,1,17.5-13.34L3201,2200.19a20.07,20.07,0,0,1,15.67,22.77l-39.48,248.91Z"/><path class="cls-42" d="M2368.05,2482.7l46.66-373.22a32.5,32.5,0,0,1,38.28-27.9L3213,2225a28.39,28.39,0,0,1,22.64,33.17l-64.19,340.1a30.74,30.74,0,0,1-34.26,24.77l-736.8-98.4A37.64,37.64,0,0,1,2368.05,2482.7Z"/><path class="cls-43" d="M2720.43,2132.05h0a29.16,29.16,0,0,1-34.08,23.26l-169.46-32a29.17,29.17,0,0,1-23.26-34.08h0a29.17,29.17,0,0,1,34.08-23.26l169.46,32A29.17,29.17,0,0,1,2720.43,2132.05Z"/><path class="cls-44" d="M2869.85,1972.87l79.76-106.37s128.16,136.15,152.75,309l-80,39C2997.6,2156.26,2951.93,2077.43,2869.85,1972.87Z"/><path class="cls-45" d="M2984.13,2452c9.45-15.81,27.9-45.9,36.87-55.29,0,0-8.21-5.19-23.94-3.25s-28.06-5.74-27.59-14.31l75.08-23c3.37-7.05,18.23-47-22.14-141.7l80-39c9.21,64.7,3.93,134.52-28.07,204.28,0,0-24.83,77.11-53.36,94.22C2946.49,2518.61,2980.5,2458.1,2984.13,2452Z"/><path class="cls-1" d="M1075,1451.5l-15.75,20-.06.08a3.35,3.35,0,0,1-5.26-4.16l0-.06,16.34-19.71a3,3,0,0,1,4.74,3.83Z"/><path class="cls-1" d="M1021.71,1524.13l-26.7,42.6-.13.21a4.62,4.62,0,0,1-7.82-4.91l.05-.07,27.77-42.46a4.12,4.12,0,0,1,7,4.44Z"/><path class="cls-1" d="M964,1623.4l-21.42,45.42-.13.27a5.64,5.64,0,1,1-10.2-4.81l0-.09,22.48-45.55a5.19,5.19,0,0,1,9.35,4.5Z"/><path class="cls-1" d="M918.72,1728.76l-15.54,47.67-.12.36a6.66,6.66,0,1,1-12.67-4.13l0-.12,16.62-48.07a6.21,6.21,0,0,1,11.78,4Z"/><path class="cls-1" d="M887.16,1838.82,877.89,1888l-.09.43a7.41,7.41,0,1,1-14.57-2.74v-.08l10-50a7.14,7.14,0,0,1,14,2.72Z"/><path class="cls-1" d="M870.31,1951.93l-2.45,50,0,.48a8,8,0,0,1-16.07-.79v-.08l3.05-50.89a7.77,7.77,0,0,1,15.51.84Z"/><path class="cls-1" d="M869.14,2066.18l4.43,49.8,0,.52a8.67,8.67,0,1,1-17.27,1.54v-.1l-4-50.87a8.39,8.39,0,0,1,16.72-1.4Z"/><path class="cls-1" d="M883.65,2179.44l11.2,48.69.12.54a9.3,9.3,0,0,1-18.12,4.17l0-.1-10.9-49.88a9,9,0,0,1,17.6-4Z"/><path class="cls-1" d="M913.42,2289.61l17.46,46.8.2.52a9.78,9.78,0,0,1-18.32,6.84v-.05l-17.62-47.94a9.65,9.65,0,0,1,18.11-6.65Z"/><path class="cls-1" d="M957.17,2395l23.33,44.17.26.49a10,10,0,1,1-17.65,9.32v0l-23.7-45.24a9.89,9.89,0,0,1,17.52-9.17Z"/><path class="cls-1" d="M1014,2493.94l28.7,40.89.32.45a10.19,10.19,0,1,1-16.68,11.71l0,0-29.19-41.9a10.1,10.1,0,1,1,16.57-11.54Z"/><path class="cls-1" d="M1082.85,2585l33.58,37,.39.43a10.4,10.4,0,1,1-15.39,14l0,0-34.21-37.94a10.3,10.3,0,0,1,15.3-13.8Z"/><path class="cls-1" d="M1162.54,2666.55l38.08,32.23.48.41a10.6,10.6,0,0,1-13.7,16.19l0,0-38.92-33.18a10.51,10.51,0,1,1,13.65-16Z"/><path class="cls-1" d="M1252.3,2736.6l21.11,13.16,10.55,6.59c3.54,2.15,7,4.48,10.61,6.48a10.81,10.81,0,0,1-10.45,18.93l0,0-.28-.16c-3.74-2.08-7.28-4.48-10.92-6.71l-10.85-6.82-21.69-13.65a10.72,10.72,0,1,1,11.41-18.14Z"/><path class="cls-1" d="M1351.46,2791.92q22.62,10.34,45.91,19.13a10.87,10.87,0,0,1-7.64,20.36q-24-9-47.35-19.6a10.93,10.93,0,0,1,9.08-19.89Z"/><path class="cls-1" d="M1458.17,2831l48.35,12,.65.16A10.73,10.73,0,0,1,1502,2864l-49.71-12.19a10.79,10.79,0,0,1,5.14-21h0Z"/><path class="cls-1" d="M1569.66,2854l49.62,5.28.6.06a10.56,10.56,0,0,1-2.2,21l-50.84-5.24a10.65,10.65,0,1,1,2.18-21.18h0Z"/><path class="cls-1" d="M1683.41,2862.14l50-.8h.53a10.13,10.13,0,0,1,.4,20.25l-51,1.21a10.32,10.32,0,0,1-.49-20.64h.61Z"/><path class="cls-1" d="M1797.51,2856.59l49.63-6.43.45,0a9.68,9.68,0,0,1,2.57,19.19l-50.5,6.95a9.88,9.88,0,1,1-2.69-19.58l.07,0Z"/><path class="cls-1" d="M1910.51,2838.75l48.8-11.37.37-.08a8.83,8.83,0,0,1,4.14,17.17l-49.39,12.28a9.21,9.21,0,1,1-4.44-17.87l.08,0Z"/><path class="cls-1" d="M2021.31,2809.71l47.55-16,.3-.1a8,8,0,0,1,5.21,15.09l-47.93,16.94a8.36,8.36,0,1,1-5.57-15.76l.07,0Z"/><path class="cls-1" d="M2129,2770.32l46-20.25.25-.11a7.13,7.13,0,0,1,5.85,13l-46.17,21.16a7.51,7.51,0,1,1-6.26-13.65l.06,0Z"/><path class="cls-1" d="M2233,2721.68l44.24-23.92.19-.1a5.84,5.84,0,0,1,5.67,10.21l-44,25.19a6.45,6.45,0,0,1-6.4-11.2l.11-.06Z"/><path class="cls-1" d="M2332.88,2664.69l42.19-27.46.13-.08a4.45,4.45,0,0,1,5,7.4l-41.8,28.65a5.06,5.06,0,1,1-5.72-8.34l.08-.06Z"/><path class="cls-1" d="M2428.21,2599.83l20.39-15.27,0,0a3,3,0,0,1,3.73,4.82l-20,16a3.46,3.46,0,1,1-4.33-5.4l.08-.06Z"/></g></svg>